<?xml version="1.0" encoding="UTF-8"?>
<!DOCTYPE svg PUBLIC "-//W3C//DTD SVG 1.1//EN" "http://www.w3.org/Graphics/SVG/1.1/DTD/svg11.dtd">
<!-- Creator: CorelDRAW X8 -->
<svg xmlns="http://www.w3.org/2000/svg" xml:space="preserve" width="441px" height="441px" version="1.1" style="shape-rendering:geometricPrecision; text-rendering:geometricPrecision; image-rendering:optimizeQuality; fill-rule:evenodd; clip-rule:evenodd"
viewBox="0 0 439 439"
 xmlns:xlink="http://www.w3.org/1999/xlink">
 <defs>
  <style type="text/css">
   <![CDATA[
    .fil0 {fill:#FEFEFE}
   ]]>
  </style>
 </defs>
 <g id="Camada_x0020_1">
  <metadata id="CorelCorpID_0Corel-Layer"/>
  <g id="_2868187515360">
   <path class="fil0" d="M387 0l-335 0c-27,0 -52,22 -52,52l0 335c0,27 25,52 52,52l335 0c30,0 52,-22 52,-52l0 -335c0,-30 -25,-52 -52,-52zm-168 134c47,0 85,39 85,85 0,47 -38,85 -85,85 -46,0 -85,-38 -85,-85 0,-46 39,-85 85,-85zm165 231c0,11 -8,19 -19,19l-291 0c-11,0 -19,-8 -19,-19l0 -181 35 0c-5,19 -5,44 0,65 11,53 53,91 105,102 85,16 159,-49 159,-132 0,-11 -3,-24 -6,-38l36 0 0 184zm0 -255l-55 0 0 -55 55 0 0 55z"/>
  </g>
 </g>
</svg>
